<mxfile host="app.diagrams.net" modified="2020-12-27T16:35:46.697Z" agent="5.0 (Windows NT 10.0; Win64; x64) AppleWebKit/537.36 (KHTML, like Gecko) Chrome/87.0.4280.88 Safari/537.36 Edg/87.0.664.66" etag="9-6yCupa3xDuP79VJ5pG" version="14.1.2" type="github">
  <diagram id="ba05wd5P19_T8I5KrJ18" name="第 1 页">
    <mxGraphModel dx="1038" dy="532" grid="1" gridSize="10" guides="1" tooltips="1" connect="1" arrows="1" fold="1" page="1" pageScale="1" pageWidth="827" pageHeight="1169" math="0" shadow="0">
      <root>
        <mxCell id="0" />
        <mxCell id="1" parent="0" />
        <mxCell id="53NNVn2IUz7sQ-eT2wiT-5" value="ImgInput" style="swimlane;fontStyle=1;align=center;verticalAlign=top;childLayout=stackLayout;horizontal=1;startSize=26;horizontalStack=0;resizeParent=1;resizeParentMax=0;resizeLast=0;collapsible=1;marginBottom=0;" vertex="1" parent="1">
          <mxGeometry x="290" y="274" width="160" height="86" as="geometry" />
        </mxCell>
        <mxCell id="53NNVn2IUz7sQ-eT2wiT-6" value=" " style="text;strokeColor=none;fillColor=none;align=left;verticalAlign=top;spacingLeft=4;spacingRight=4;overflow=hidden;rotatable=0;points=[[0,0.5],[1,0.5]];portConstraint=eastwest;" vertex="1" parent="53NNVn2IUz7sQ-eT2wiT-5">
          <mxGeometry y="26" width="160" height="26" as="geometry" />
        </mxCell>
        <mxCell id="53NNVn2IUz7sQ-eT2wiT-7" value="" style="line;strokeWidth=1;fillColor=none;align=left;verticalAlign=middle;spacingTop=-1;spacingLeft=3;spacingRight=3;rotatable=0;labelPosition=right;points=[];portConstraint=eastwest;" vertex="1" parent="53NNVn2IUz7sQ-eT2wiT-5">
          <mxGeometry y="52" width="160" height="8" as="geometry" />
        </mxCell>
        <mxCell id="53NNVn2IUz7sQ-eT2wiT-8" value="+static():void" style="text;strokeColor=none;fillColor=none;align=left;verticalAlign=top;spacingLeft=4;spacingRight=4;overflow=hidden;rotatable=0;points=[[0,0.5],[1,0.5]];portConstraint=eastwest;" vertex="1" parent="53NNVn2IUz7sQ-eT2wiT-5">
          <mxGeometry y="60" width="160" height="26" as="geometry" />
        </mxCell>
        <mxCell id="53NNVn2IUz7sQ-eT2wiT-9" value="ImgTurn" style="swimlane;fontStyle=1;align=center;verticalAlign=top;childLayout=stackLayout;horizontal=1;startSize=26;horizontalStack=0;resizeParent=1;resizeParentMax=0;resizeLast=0;collapsible=1;marginBottom=0;" vertex="1" parent="1">
          <mxGeometry x="545" y="250" width="200" height="110" as="geometry" />
        </mxCell>
        <mxCell id="53NNVn2IUz7sQ-eT2wiT-10" value=" " style="text;strokeColor=none;fillColor=none;align=left;verticalAlign=top;spacingLeft=4;spacingRight=4;overflow=hidden;rotatable=0;points=[[0,0.5],[1,0.5]];portConstraint=eastwest;" vertex="1" parent="53NNVn2IUz7sQ-eT2wiT-9">
          <mxGeometry y="26" width="200" height="26" as="geometry" />
        </mxCell>
        <mxCell id="53NNVn2IUz7sQ-eT2wiT-11" value="" style="line;strokeWidth=1;fillColor=none;align=left;verticalAlign=middle;spacingTop=-1;spacingLeft=3;spacingRight=3;rotatable=0;labelPosition=right;points=[];portConstraint=eastwest;" vertex="1" parent="53NNVn2IUz7sQ-eT2wiT-9">
          <mxGeometry y="52" width="200" height="8" as="geometry" />
        </mxCell>
        <mxCell id="53NNVn2IUz7sQ-eT2wiT-12" value="+getImage(imagePath:String):Image&#xa;+rorateImage(bufferedimage:&#xa;BufferedImage ,degree:int):Image" style="text;strokeColor=none;fillColor=none;align=left;verticalAlign=top;spacingLeft=4;spacingRight=4;overflow=hidden;rotatable=0;points=[[0,0.5],[1,0.5]];portConstraint=eastwest;" vertex="1" parent="53NNVn2IUz7sQ-eT2wiT-9">
          <mxGeometry y="60" width="200" height="50" as="geometry" />
        </mxCell>
        <mxCell id="53NNVn2IUz7sQ-eT2wiT-18" value="Food" style="swimlane;fontStyle=1;align=center;verticalAlign=top;childLayout=stackLayout;horizontal=1;startSize=26;horizontalStack=0;resizeParent=1;resizeParentMax=0;resizeLast=0;collapsible=1;marginBottom=0;" vertex="1" parent="1">
          <mxGeometry x="360" y="430" width="160" height="110" as="geometry" />
        </mxCell>
        <mxCell id="53NNVn2IUz7sQ-eT2wiT-19" value="  " style="text;strokeColor=none;fillColor=none;align=left;verticalAlign=top;spacingLeft=4;spacingRight=4;overflow=hidden;rotatable=0;points=[[0,0.5],[1,0.5]];portConstraint=eastwest;" vertex="1" parent="53NNVn2IUz7sQ-eT2wiT-18">
          <mxGeometry y="26" width="160" height="26" as="geometry" />
        </mxCell>
        <mxCell id="53NNVn2IUz7sQ-eT2wiT-20" value="" style="line;strokeWidth=1;fillColor=none;align=left;verticalAlign=middle;spacingTop=-1;spacingLeft=3;spacingRight=3;rotatable=0;labelPosition=right;points=[];portConstraint=eastwest;" vertex="1" parent="53NNVn2IUz7sQ-eT2wiT-18">
          <mxGeometry y="52" width="160" height="8" as="geometry" />
        </mxCell>
        <mxCell id="53NNVn2IUz7sQ-eT2wiT-21" value="+Food():void&#xa;+eaten():void&#xa;+draw(g:Graphics):void" style="text;strokeColor=none;fillColor=none;align=left;verticalAlign=top;spacingLeft=4;spacingRight=4;overflow=hidden;rotatable=0;points=[[0,0.5],[1,0.5]];portConstraint=eastwest;" vertex="1" parent="53NNVn2IUz7sQ-eT2wiT-18">
          <mxGeometry y="60" width="160" height="50" as="geometry" />
        </mxCell>
        <mxCell id="53NNVn2IUz7sQ-eT2wiT-22" value="SnFrame" style="swimlane;fontStyle=1;align=center;verticalAlign=top;childLayout=stackLayout;horizontal=1;startSize=26;horizontalStack=0;resizeParent=1;resizeParentMax=0;resizeLast=0;collapsible=1;marginBottom=0;" vertex="1" parent="1">
          <mxGeometry x="310" y="960" width="160" height="100" as="geometry" />
        </mxCell>
        <mxCell id="53NNVn2IUz7sQ-eT2wiT-23" value="-index:int" style="text;strokeColor=none;fillColor=none;align=left;verticalAlign=top;spacingLeft=4;spacingRight=4;overflow=hidden;rotatable=0;points=[[0,0.5],[1,0.5]];portConstraint=eastwest;" vertex="1" parent="53NNVn2IUz7sQ-eT2wiT-22">
          <mxGeometry y="26" width="160" height="26" as="geometry" />
        </mxCell>
        <mxCell id="53NNVn2IUz7sQ-eT2wiT-24" value="" style="line;strokeWidth=1;fillColor=none;align=left;verticalAlign=middle;spacingTop=-1;spacingLeft=3;spacingRight=3;rotatable=0;labelPosition=right;points=[];portConstraint=eastwest;" vertex="1" parent="53NNVn2IUz7sQ-eT2wiT-22">
          <mxGeometry y="52" width="160" height="8" as="geometry" />
        </mxCell>
        <mxCell id="53NNVn2IUz7sQ-eT2wiT-25" value="+loadFrame():void&#xa;+update(g:Graphics):void" style="text;strokeColor=none;fillColor=none;align=left;verticalAlign=top;spacingLeft=4;spacingRight=4;overflow=hidden;rotatable=0;points=[[0,0.5],[1,0.5]];portConstraint=eastwest;" vertex="1" parent="53NNVn2IUz7sQ-eT2wiT-22">
          <mxGeometry y="60" width="160" height="40" as="geometry" />
        </mxCell>
        <mxCell id="53NNVn2IUz7sQ-eT2wiT-26" value="snakeRun" style="swimlane;fontStyle=1;align=center;verticalAlign=top;childLayout=stackLayout;horizontal=1;startSize=26;horizontalStack=0;resizeParent=1;resizeParentMax=0;resizeLast=0;collapsible=1;marginBottom=0;" vertex="1" parent="1">
          <mxGeometry x="60" y="945" width="170" height="130" as="geometry" />
        </mxCell>
        <mxCell id="53NNVn2IUz7sQ-eT2wiT-27" value=" " style="text;strokeColor=none;fillColor=none;align=left;verticalAlign=top;spacingLeft=4;spacingRight=4;overflow=hidden;rotatable=0;points=[[0,0.5],[1,0.5]];portConstraint=eastwest;" vertex="1" parent="53NNVn2IUz7sQ-eT2wiT-26">
          <mxGeometry y="26" width="170" height="26" as="geometry" />
        </mxCell>
        <mxCell id="53NNVn2IUz7sQ-eT2wiT-28" value="" style="line;strokeWidth=1;fillColor=none;align=left;verticalAlign=middle;spacingTop=-1;spacingLeft=3;spacingRight=3;rotatable=0;labelPosition=right;points=[];portConstraint=eastwest;" vertex="1" parent="53NNVn2IUz7sQ-eT2wiT-26">
          <mxGeometry y="52" width="170" height="8" as="geometry" />
        </mxCell>
        <mxCell id="53NNVn2IUz7sQ-eT2wiT-29" value="+loadFrame():void&#xa;+paint(g:Graphics):void&#xa;+drawScore(g:Graphics):void&#xa;+main(args:String[]):void&#xa;" style="text;strokeColor=none;fillColor=none;align=left;verticalAlign=top;spacingLeft=4;spacingRight=4;overflow=hidden;rotatable=0;points=[[0,0.5],[1,0.5]];portConstraint=eastwest;" vertex="1" parent="53NNVn2IUz7sQ-eT2wiT-26">
          <mxGeometry y="60" width="170" height="70" as="geometry" />
        </mxCell>
        <mxCell id="53NNVn2IUz7sQ-eT2wiT-32" value="&lt;p style=&quot;margin: 0px ; margin-top: 4px ; text-align: center&quot;&gt;&lt;i&gt;&amp;lt;&amp;lt;Interface&amp;gt;&amp;gt;&lt;/i&gt;&lt;br&gt;&lt;b&gt;Move&lt;/b&gt;&lt;/p&gt;&lt;hr size=&quot;1&quot;&gt;&lt;p style=&quot;margin: 0px ; margin-left: 4px&quot;&gt;&amp;nbsp;&lt;/p&gt;&lt;hr size=&quot;1&quot;&gt;&lt;p style=&quot;margin: 0px ; margin-left: 4px&quot;&gt;+ move(): void&lt;br&gt;&lt;/p&gt;" style="verticalAlign=top;align=left;overflow=fill;fontSize=12;fontFamily=Helvetica;html=1;" vertex="1" parent="1">
          <mxGeometry x="610" y="585" width="190" height="100" as="geometry" />
        </mxCell>
        <mxCell id="53NNVn2IUz7sQ-eT2wiT-38" value="Constant" style="swimlane;fontStyle=1;align=center;verticalAlign=top;childLayout=stackLayout;horizontal=1;startSize=26;horizontalStack=0;resizeParent=1;resizeParentMax=0;resizeLast=0;collapsible=1;marginBottom=0;" vertex="1" parent="1">
          <mxGeometry x="60" y="250" width="160" height="110" as="geometry" />
        </mxCell>
        <mxCell id="53NNVn2IUz7sQ-eT2wiT-39" value="+GAME_WIDTH:int&#xa;+GAME_HEIGHT:int&#xa;+IMG_PRE:String" style="text;strokeColor=none;fillColor=none;align=left;verticalAlign=top;spacingLeft=4;spacingRight=4;overflow=hidden;rotatable=0;points=[[0,0.5],[1,0.5]];portConstraint=eastwest;" vertex="1" parent="53NNVn2IUz7sQ-eT2wiT-38">
          <mxGeometry y="26" width="160" height="54" as="geometry" />
        </mxCell>
        <mxCell id="53NNVn2IUz7sQ-eT2wiT-40" value="" style="line;strokeWidth=1;fillColor=none;align=left;verticalAlign=middle;spacingTop=-1;spacingLeft=3;spacingRight=3;rotatable=0;labelPosition=right;points=[];portConstraint=eastwest;" vertex="1" parent="53NNVn2IUz7sQ-eT2wiT-38">
          <mxGeometry y="80" width="160" height="8" as="geometry" />
        </mxCell>
        <mxCell id="53NNVn2IUz7sQ-eT2wiT-41" value="  " style="text;strokeColor=none;fillColor=none;align=left;verticalAlign=top;spacingLeft=4;spacingRight=4;overflow=hidden;rotatable=0;points=[[0,0.5],[1,0.5]];portConstraint=eastwest;" vertex="1" parent="53NNVn2IUz7sQ-eT2wiT-38">
          <mxGeometry y="88" width="160" height="22" as="geometry" />
        </mxCell>
        <mxCell id="53NNVn2IUz7sQ-eT2wiT-42" value="SnFoodObject" style="swimlane;fontStyle=3;align=center;verticalAlign=top;childLayout=stackLayout;horizontal=1;startSize=26;horizontalStack=0;resizeParent=1;resizeParentMax=0;resizeLast=0;collapsible=1;marginBottom=0;" vertex="1" parent="1">
          <mxGeometry x="60" y="460" width="160" height="170" as="geometry" />
        </mxCell>
        <mxCell id="53NNVn2IUz7sQ-eT2wiT-43" value="+x:int&#xa;+y:int&#xa;+img:Image&#xa;+width:int&#xa;+height:int&#xa;+live:boolean" style="text;strokeColor=none;fillColor=none;align=left;verticalAlign=top;spacingLeft=4;spacingRight=4;overflow=hidden;rotatable=0;points=[[0,0.5],[1,0.5]];portConstraint=eastwest;" vertex="1" parent="53NNVn2IUz7sQ-eT2wiT-42">
          <mxGeometry y="26" width="160" height="94" as="geometry" />
        </mxCell>
        <mxCell id="53NNVn2IUz7sQ-eT2wiT-44" value="" style="line;strokeWidth=1;fillColor=none;align=left;verticalAlign=middle;spacingTop=-1;spacingLeft=3;spacingRight=3;rotatable=0;labelPosition=right;points=[];portConstraint=eastwest;" vertex="1" parent="53NNVn2IUz7sQ-eT2wiT-42">
          <mxGeometry y="120" width="160" height="8" as="geometry" />
        </mxCell>
        <mxCell id="53NNVn2IUz7sQ-eT2wiT-45" value="+ draw(g:Graphics): void&#xa;+getRectangle(): Rectangle" style="text;strokeColor=none;fillColor=none;align=left;verticalAlign=top;spacingLeft=4;spacingRight=4;overflow=hidden;rotatable=0;points=[[0,0.5],[1,0.5]];portConstraint=eastwest;" vertex="1" parent="53NNVn2IUz7sQ-eT2wiT-42">
          <mxGeometry y="128" width="160" height="42" as="geometry" />
        </mxCell>
        <mxCell id="53NNVn2IUz7sQ-eT2wiT-46" value="MyThread" style="swimlane;fontStyle=1;align=center;verticalAlign=top;childLayout=stackLayout;horizontal=1;startSize=26;horizontalStack=0;resizeParent=1;resizeParentMax=0;resizeLast=0;collapsible=1;marginBottom=0;" vertex="1" parent="1">
          <mxGeometry x="310" y="1120" width="160" height="86" as="geometry" />
        </mxCell>
        <mxCell id="53NNVn2IUz7sQ-eT2wiT-47" value=" " style="text;strokeColor=none;fillColor=none;align=left;verticalAlign=top;spacingLeft=4;spacingRight=4;overflow=hidden;rotatable=0;points=[[0,0.5],[1,0.5]];portConstraint=eastwest;" vertex="1" parent="53NNVn2IUz7sQ-eT2wiT-46">
          <mxGeometry y="26" width="160" height="26" as="geometry" />
        </mxCell>
        <mxCell id="53NNVn2IUz7sQ-eT2wiT-48" value="" style="line;strokeWidth=1;fillColor=none;align=left;verticalAlign=middle;spacingTop=-1;spacingLeft=3;spacingRight=3;rotatable=0;labelPosition=right;points=[];portConstraint=eastwest;" vertex="1" parent="53NNVn2IUz7sQ-eT2wiT-46">
          <mxGeometry y="52" width="160" height="8" as="geometry" />
        </mxCell>
        <mxCell id="53NNVn2IUz7sQ-eT2wiT-49" value="+ run(): void" style="text;strokeColor=none;fillColor=none;align=left;verticalAlign=top;spacingLeft=4;spacingRight=4;overflow=hidden;rotatable=0;points=[[0,0.5],[1,0.5]];portConstraint=eastwest;" vertex="1" parent="53NNVn2IUz7sQ-eT2wiT-46">
          <mxGeometry y="60" width="160" height="26" as="geometry" />
        </mxCell>
        <mxCell id="53NNVn2IUz7sQ-eT2wiT-31" value="&lt;p style=&quot;margin: 0px ; margin-top: 4px ; text-align: center&quot;&gt;&lt;i&gt;&amp;lt;&amp;lt;Interface&amp;gt;&amp;gt;&lt;/i&gt;&lt;br&gt;&lt;b&gt;Draw&lt;/b&gt;&lt;/p&gt;&lt;hr size=&quot;1&quot;&gt;&lt;p style=&quot;margin: 0px ; margin-left: 4px&quot;&gt;&amp;nbsp;&lt;/p&gt;&lt;hr size=&quot;1&quot;&gt;&lt;p style=&quot;margin: 0px ; margin-left: 4px&quot;&gt;+ draw(g:Graphics): void&lt;br&gt;&lt;/p&gt;" style="verticalAlign=top;align=left;overflow=fill;fontSize=12;fontFamily=Helvetica;html=1;" vertex="1" parent="1">
          <mxGeometry x="60" y="720" width="160" height="100" as="geometry" />
        </mxCell>
        <mxCell id="53NNVn2IUz7sQ-eT2wiT-51" value="MySnake" style="swimlane;fontStyle=1;align=center;verticalAlign=top;childLayout=stackLayout;horizontal=1;startSize=26;horizontalStack=0;resizeParent=1;resizeParentMax=0;resizeLast=0;collapsible=1;marginBottom=0;" vertex="1" parent="1">
          <mxGeometry x="360" y="580" width="180" height="310" as="geometry" />
        </mxCell>
        <mxCell id="53NNVn2IUz7sQ-eT2wiT-52" value="-keyCase:int&#xa;-speed:int&#xa;-length:int&#xa;-num:int&#xa;+score:int&#xa;+up:boolean&#xa;+down:boolean&#xa;+left:boolean&#xa;+right:boolean" style="text;strokeColor=none;fillColor=none;align=left;verticalAlign=top;spacingLeft=4;spacingRight=4;overflow=hidden;rotatable=0;points=[[0,0.5],[1,0.5]];portConstraint=eastwest;" vertex="1" parent="53NNVn2IUz7sQ-eT2wiT-51">
          <mxGeometry y="26" width="180" height="134" as="geometry" />
        </mxCell>
        <mxCell id="53NNVn2IUz7sQ-eT2wiT-53" value="" style="line;strokeWidth=1;fillColor=none;align=left;verticalAlign=middle;spacingTop=-1;spacingLeft=3;spacingRight=3;rotatable=0;labelPosition=right;points=[];portConstraint=eastwest;" vertex="1" parent="53NNVn2IUz7sQ-eT2wiT-51">
          <mxGeometry y="160" width="180" height="8" as="geometry" />
        </mxCell>
        <mxCell id="53NNVn2IUz7sQ-eT2wiT-54" value="+MySnake(x:int,y:nt):void&#xa;+ getLength():int&#xa;+setLength(length:int):void&#xa;+keyPressed(e:KeyEvent):void&#xa;+move():void&#xa;+draw(g:Graphics):void&#xa;+eatBody():void&#xa;+drawBody(g:Graphics):void&#xa;+outOfBounds():void&#xa;" style="text;strokeColor=none;fillColor=none;align=left;verticalAlign=top;spacingLeft=4;spacingRight=4;overflow=hidden;rotatable=0;points=[[0,0.5],[1,0.5]];portConstraint=eastwest;" vertex="1" parent="53NNVn2IUz7sQ-eT2wiT-51">
          <mxGeometry y="168" width="180" height="142" as="geometry" />
        </mxCell>
        <mxCell id="53NNVn2IUz7sQ-eT2wiT-58" value="" style="endArrow=block;endSize=16;endFill=0;html=1;" edge="1" parent="1" source="53NNVn2IUz7sQ-eT2wiT-60">
          <mxGeometry width="160" relative="1" as="geometry">
            <mxPoint x="350" y="520" as="sourcePoint" />
            <mxPoint x="220" y="560" as="targetPoint" />
            <Array as="points">
              <mxPoint x="270" y="560" />
              <mxPoint x="250" y="560" />
            </Array>
          </mxGeometry>
        </mxCell>
        <mxCell id="53NNVn2IUz7sQ-eT2wiT-60" value="" style="strokeWidth=1;html=1;shape=mxgraph.flowchart.annotation_2;align=left;labelPosition=right;pointerEvents=1;" vertex="1" parent="1">
          <mxGeometry x="270" y="500" width="90" height="120" as="geometry" />
        </mxCell>
        <mxCell id="53NNVn2IUz7sQ-eT2wiT-62" value="" style="endArrow=block;dashed=1;endFill=0;endSize=12;html=1;entryX=0.432;entryY=-0.002;entryDx=0;entryDy=0;entryPerimeter=0;" edge="1" parent="1" target="53NNVn2IUz7sQ-eT2wiT-31">
          <mxGeometry width="160" relative="1" as="geometry">
            <mxPoint x="129" y="634" as="sourcePoint" />
            <mxPoint x="270" y="670" as="targetPoint" />
          </mxGeometry>
        </mxCell>
        <mxCell id="53NNVn2IUz7sQ-eT2wiT-63" value="Frame" style="swimlane;fontStyle=1;align=center;verticalAlign=top;childLayout=stackLayout;horizontal=1;startSize=26;horizontalStack=0;resizeParent=1;resizeParentMax=0;resizeLast=0;collapsible=1;marginBottom=0;strokeWidth=1;" vertex="1" parent="1">
          <mxGeometry x="565" y="960" width="160" height="86" as="geometry" />
        </mxCell>
        <mxCell id="53NNVn2IUz7sQ-eT2wiT-64" value=" " style="text;strokeColor=none;fillColor=none;align=left;verticalAlign=top;spacingLeft=4;spacingRight=4;overflow=hidden;rotatable=0;points=[[0,0.5],[1,0.5]];portConstraint=eastwest;" vertex="1" parent="53NNVn2IUz7sQ-eT2wiT-63">
          <mxGeometry y="26" width="160" height="26" as="geometry" />
        </mxCell>
        <mxCell id="53NNVn2IUz7sQ-eT2wiT-65" value="" style="line;strokeWidth=1;fillColor=none;align=left;verticalAlign=middle;spacingTop=-1;spacingLeft=3;spacingRight=3;rotatable=0;labelPosition=right;points=[];portConstraint=eastwest;" vertex="1" parent="53NNVn2IUz7sQ-eT2wiT-63">
          <mxGeometry y="52" width="160" height="8" as="geometry" />
        </mxCell>
        <mxCell id="53NNVn2IUz7sQ-eT2wiT-66" value=" " style="text;strokeColor=none;fillColor=none;align=left;verticalAlign=top;spacingLeft=4;spacingRight=4;overflow=hidden;rotatable=0;points=[[0,0.5],[1,0.5]];portConstraint=eastwest;" vertex="1" parent="53NNVn2IUz7sQ-eT2wiT-63">
          <mxGeometry y="60" width="160" height="26" as="geometry" />
        </mxCell>
        <mxCell id="53NNVn2IUz7sQ-eT2wiT-67" value="" style="endArrow=block;endSize=16;endFill=0;html=1;exitX=0.995;exitY=0.869;exitDx=0;exitDy=0;exitPerimeter=0;" edge="1" parent="1">
          <mxGeometry width="160" relative="1" as="geometry">
            <mxPoint x="469.20000000000005" y="1010.594" as="sourcePoint" />
            <mxPoint x="564" y="1010" as="targetPoint" />
          </mxGeometry>
        </mxCell>
        <mxCell id="53NNVn2IUz7sQ-eT2wiT-68" value="" style="endArrow=block;endSize=16;endFill=0;html=1;exitX=0.995;exitY=0.166;exitDx=0;exitDy=0;exitPerimeter=0;entryX=0.005;entryY=-0.065;entryDx=0;entryDy=0;entryPerimeter=0;" edge="1" parent="1" source="53NNVn2IUz7sQ-eT2wiT-29" target="53NNVn2IUz7sQ-eT2wiT-25">
          <mxGeometry width="160" relative="1" as="geometry">
            <mxPoint x="390" y="1020" as="sourcePoint" />
            <mxPoint x="550" y="1020" as="targetPoint" />
          </mxGeometry>
        </mxCell>
        <mxCell id="53NNVn2IUz7sQ-eT2wiT-70" value="" style="endArrow=block;dashed=1;endFill=0;endSize=12;html=1;entryX=0;entryY=0.5;entryDx=0;entryDy=0;" edge="1" parent="1" target="53NNVn2IUz7sQ-eT2wiT-32">
          <mxGeometry width="160" relative="1" as="geometry">
            <mxPoint x="540" y="635" as="sourcePoint" />
            <mxPoint x="550" y="610" as="targetPoint" />
          </mxGeometry>
        </mxCell>
        <mxCell id="53NNVn2IUz7sQ-eT2wiT-72" value="1" style="endArrow=open;html=1;endSize=12;startArrow=diamondThin;startSize=14;startFill=1;edgeStyle=orthogonalEdgeStyle;align=left;verticalAlign=bottom;entryX=0.01;entryY=0.885;entryDx=0;entryDy=0;exitX=0.997;exitY=0.87;exitDx=0;exitDy=0;exitPerimeter=0;entryPerimeter=0;" edge="1" parent="1" source="53NNVn2IUz7sQ-eT2wiT-39" target="53NNVn2IUz7sQ-eT2wiT-6">
          <mxGeometry x="-1" y="3" relative="1" as="geometry">
            <mxPoint x="390" y="270" as="sourcePoint" />
            <mxPoint x="550" y="270" as="targetPoint" />
          </mxGeometry>
        </mxCell>
        <mxCell id="53NNVn2IUz7sQ-eT2wiT-75" value="" style="endArrow=open;startArrow=circlePlus;endFill=0;startFill=0;endSize=8;html=1;entryX=0.45;entryY=-0.002;entryDx=0;entryDy=0;entryPerimeter=0;" edge="1" parent="1" target="53NNVn2IUz7sQ-eT2wiT-46">
          <mxGeometry width="160" relative="1" as="geometry">
            <mxPoint x="382" y="1059" as="sourcePoint" />
            <mxPoint x="550" y="1020" as="targetPoint" />
          </mxGeometry>
        </mxCell>
        <mxCell id="53NNVn2IUz7sQ-eT2wiT-76" value="Thread" style="swimlane;fontStyle=1;align=center;verticalAlign=top;childLayout=stackLayout;horizontal=1;startSize=26;horizontalStack=0;resizeParent=1;resizeParentMax=0;resizeLast=0;collapsible=1;marginBottom=0;strokeWidth=1;" vertex="1" parent="1">
          <mxGeometry x="540" y="1120" width="160" height="86" as="geometry" />
        </mxCell>
        <mxCell id="53NNVn2IUz7sQ-eT2wiT-77" value=" " style="text;strokeColor=none;fillColor=none;align=left;verticalAlign=top;spacingLeft=4;spacingRight=4;overflow=hidden;rotatable=0;points=[[0,0.5],[1,0.5]];portConstraint=eastwest;" vertex="1" parent="53NNVn2IUz7sQ-eT2wiT-76">
          <mxGeometry y="26" width="160" height="26" as="geometry" />
        </mxCell>
        <mxCell id="53NNVn2IUz7sQ-eT2wiT-78" value="" style="line;strokeWidth=1;fillColor=none;align=left;verticalAlign=middle;spacingTop=-1;spacingLeft=3;spacingRight=3;rotatable=0;labelPosition=right;points=[];portConstraint=eastwest;" vertex="1" parent="53NNVn2IUz7sQ-eT2wiT-76">
          <mxGeometry y="52" width="160" height="8" as="geometry" />
        </mxCell>
        <mxCell id="53NNVn2IUz7sQ-eT2wiT-79" value=" " style="text;strokeColor=none;fillColor=none;align=left;verticalAlign=top;spacingLeft=4;spacingRight=4;overflow=hidden;rotatable=0;points=[[0,0.5],[1,0.5]];portConstraint=eastwest;" vertex="1" parent="53NNVn2IUz7sQ-eT2wiT-76">
          <mxGeometry y="60" width="160" height="26" as="geometry" />
        </mxCell>
        <mxCell id="53NNVn2IUz7sQ-eT2wiT-80" value="" style="endArrow=block;endSize=16;endFill=0;html=1;" edge="1" parent="1">
          <mxGeometry x="-0.1656" y="42" width="160" relative="1" as="geometry">
            <mxPoint x="470" y="1172" as="sourcePoint" />
            <mxPoint x="540" y="1172" as="targetPoint" />
            <Array as="points">
              <mxPoint x="510" y="1172" />
            </Array>
            <mxPoint as="offset" />
          </mxGeometry>
        </mxCell>
      </root>
    </mxGraphModel>
  </diagram>
</mxfile>
